<svg width="256px" height="256px" viewBox="-6.4 -6.4 76.80 76.80" xmlns="http://www.w3.org/2000/svg"
	fill="#000000">

	<g id="SVGRepo_bgCarrier" stroke-width="0" transform="translate(0,0), scale(1)">

		<path transform="translate(-6.4, -6.4), scale(4.8)" fill="#ffe9c8"
			d="M9.166.33a2.25 2.25 0 00-2.332 0l-5.25 3.182A2.25 2.25 0 00.5 5.436v5.128a2.25 2.25 0 001.084 1.924l5.25 3.182a2.25 2.25 0 002.332 0l5.25-3.182a2.25 2.25 0 001.084-1.924V5.436a2.25 2.25 0 00-1.084-1.924L9.166.33z"
			strokewidth="0" />

	</g>

	<g id="SVGRepo_tracerCarrier" stroke-linecap="round" stroke-linejoin="round" stroke="#CCCCCC"
		stroke-width="2.432" />

	<g id="SVGRepo_iconCarrier">
		<g id="a" />
		<g id="b" />
		<g id="c" />
		<g id="d" />
		<g id="e" />
		<g id="f" />
		<g id="g" />
		<g id="h" />
		<g id="i" />
		<g id="j" />
		<g id="k" />
		<g id="l" />
		<g id="m" />
		<g id="n" />
		<g id="o" />
		<g id="p" />
		<g id="q" />
		<g id="r" />
		<g id="s" />
		<g id="t" />
		<g id="u" />
		<g id="v" />
		<g id="w" />
		<g id="x" />
		<g id="y" />
		<g id="a`" />
		<g id="aa" />
		<g id="ab" />
		<g id="ac" />
		<g id="ad" />
		<g id="ae">
			<path
				d="M48.21,13.59c-.11,.01-.21,.06-.3,.11l.12,5.76,2.15,2.71,8.53-2.61c.35-.11,.4-.59,.07-.76l-10.09-5.13c-.14-.07-.31-.1-.47-.08h0Z"
				fill="#8bcaff" id="af" />
			<path d="M47.91,13.7l1.01,6.87,1.26,1.59,3.26-1-5.53-7.47Z" fill="#8bcaff" id="ag" />
			<path
				d="M50.17,22.16l-2.27-8.47c-.18,.11-.32,.28-.38,.49l-3.47,14.08-5.7,7.64,2.05,7.17c.24-.12,.46-.27,.66-.46l10.78-10.78c.45-.45,.62-1.09,.45-1.7l-2.14-7.97Z"
				fill="#8bcaff" id="ah" />
			<path
				d="M32.22,43.34h7.12c.38,0,.75-.1,1.08-.26l3.64-14.81L10.41,19.47c-.56-.15-1.15,.14-1.38,.68l-3.88,9.23c-.14,.32-.17,.67-.12,1.01l27.19,12.96Z"
				fill="#8bcaff" id="ai" />
			<path d="M41.49,27.6l-1.06,15.48,3.64-14.81-2.58-.67Z" fill="#8bcaff" id="aj" />
			<path
				d="M24.94,43.34l.49-3.72-2.88-4.98L5.03,30.39c.04,.27,.14,.53,.31,.77l7.93,11.35c.36,.52,.96,.83,1.6,.83h10.08Z"
				fill="#e2eef2" id="ak" />
			<path d="M22.56,34.65l-.32,8.69h2.7l.48-3.64-2.82-4.97-.05-.08Z" fill="#d7e5eb" id="al" />
			<path d="M32.22,43.34l-9.66-8.7h0l2.39,8.7,1.94,7.08,5.33-7.08Z" fill="#f0f4f6" id="am" />
			<path
				d="M12.45,43.08c.55,.79,1.46,1.26,2.42,1.26h9.32l1.48,5.38c.33,1.18,1.88,1.49,2.63,.5l4.43-5.88h6.63c.92,0,1.79-.36,2.44-1.01l10.78-10.78c.7-.7,.97-1.72,.71-2.67l-1.89-7.04,7.61-2.33c.55-.17,.95-.65,1-1.23,.05-.58-.25-1.12-.77-1.38l-10.09-5.12c-.33-.17-.69-.23-1.05-.18-.73,.1-1.34,.64-1.52,1.36l-3.22,13.1L10.66,18.5c-1.04-.27-2.13,.27-2.55,1.26l-3.88,9.23c-.38,.91-.27,1.93,.29,2.73l7.93,11.35Zm1.64-1.15l-7-10.02,14.66,3.56,1.88,6.87H14.87c-.31,0-.6-.15-.78-.41Zm13.23,6.26l-2.89-10.52,6.44,5.8-3.55,4.72Zm23.56-27.29l-1.55-5.79,7.7,3.91-6.15,1.88Zm-3.06-3.68l3.53,13.17c.07,.26,0,.55-.2,.74l-8.97,8.97,5.63-22.88Zm-37.87,3.32c.03-.07,.09-.11,.16-.11,.01,0,.03,0,.04,0l32.71,8.55-3.26,13.24c-.09,.02-.16,.11-.26,.11h-6.74l-9.37-8.44c-.12-.11-.27-.19-.43-.23L6.13,29.62l3.82-9.09Z" />
		</g>
		<g id="an" />
		<g id="ao" />
		<g id="ap" />
		<g id="aq" />
		<g id="ar" />
		<g id="as" />
		<g id="at" />
		<g id="au" />
		<g id="av" />
		<g id="aw" />
		<g id="ax" />
		<g id="ay" />
		<g id="b`" />
		<g id="ba" />
		<g id="bb" />
		<g id="bc" />
		<g id="bd" />
		<g id="be" />
		<g id="bf" />
	</g>

</svg>